<?xml version="1.0" encoding="utf-8" ?>
<?xml-stylesheet href="styles.css" type="text/css" title="pls" alternate="no" media="screen"?>
<svg baseProfile="full" height="100%" version="1.1" width="100%" xmlns="http://www.w3.org/2000/svg" xmlns:ev="http://www.w3.org/2001/xml-events" xmlns:xlink="http://www.w3.org/1999/xlink"><defs /><rect fill="none" height="29mm" stroke="rgb(10%,10%,16%)" width="20cm" x="10" y="10" /><line fill="none" stroke="rgb(10%,10%,16%)" x1="160" x2="160" y1="10" y2="120" /><rect fill="black" height="20" stroke="rgb(10%,10%,16%)" width="10" x="10" y="10" /><line fill="none" stroke="rgb(10%,10%,16%)" x1="240" x2="240" y1="10" y2="120" /><line fill="none" stroke="rgb(10%,10%,16%)" x1="320" x2="320" y1="10" y2="120" /><line fill="none" stroke="rgb(10%,10%,16%)" x1="400" x2="400" y1="10" y2="120" /><line fill="none" stroke="rgb(10%,10%,16%)" x1="480" x2="480" y1="10" y2="120" /><line fill="none" stroke="rgb(10%,10%,16%)" x1="560" x2="560" y1="10" y2="120" /><line fill="none" stroke="rgb(10%,10%,16%)" x1="560" x2="765" y1="65" y2="65" /><line fill="none" stroke="rgb(10%,10%,16%)" x1="628" x2="628" y1="65" y2="120" /><line fill="none" stroke="rgb(10%,10%,16%)" x1="696" x2="696" y1="65" y2="120" /><text class="largebold" fill="black" x="25" y="35">TAP23PG</text><text class="normal" fill="black" x="85" y="50">Air Portugal</text><text class="largebold" fill="black" x="25" y="65">2000</text><text class="normal" fill="black" x="25" y="90">A320/M</text><text class="normal" fill="black" x="25" y="115">PBN/A1B1C1D1O1S1 DOF/211209 REG/CSTMW EET/ESAA0025 EKDK0112 EDVV0</text><text class="normal" fill="black" x="180" y="27">0905</text><text class="normal" fill="black" x="340" y="27">F340</text><text class="normal" fill="black" x="410" y="27" /><text class="largebold" fill="black" x="505" y="35" /><text class="largebold" fill="black" x="560" y="35">EFHK LPPT</text><text class="normal" fill="black" x="690" y="35">0422</text><text class="normal" fill="black" x="750" y="27">I</text><text class="normal" fill="black" x="560" y="60">NUNTO Y369 REKDO DCT 551</text><rect fill="none" height="29mm" stroke="rgb(10%,10%,16%)" width="20cm" x="10" y="150" /><line fill="none" stroke="rgb(10%,10%,16%)" x1="160" x2="160" y1="150" y2="260" /><rect fill="black" height="20" stroke="rgb(10%,10%,16%)" width="10" x="10" y="150" /><line fill="none" stroke="rgb(10%,10%,16%)" x1="240" x2="240" y1="150" y2="260" /><line fill="none" stroke="rgb(10%,10%,16%)" x1="320" x2="320" y1="150" y2="260" /><line fill="none" stroke="rgb(10%,10%,16%)" x1="400" x2="400" y1="150" y2="260" /><line fill="none" stroke="rgb(10%,10%,16%)" x1="480" x2="480" y1="150" y2="260" /><line fill="none" stroke="rgb(10%,10%,16%)" x1="560" x2="560" y1="150" y2="260" /><line fill="none" stroke="rgb(10%,10%,16%)" x1="560" x2="765" y1="205" y2="205" /><line fill="none" stroke="rgb(10%,10%,16%)" x1="628" x2="628" y1="205" y2="260" /><line fill="none" stroke="rgb(10%,10%,16%)" x1="696" x2="696" y1="205" y2="260" /><text class="largebold" fill="black" x="25" y="175">DLH7001</text><text class="normal" fill="black" x="85" y="190">Lufthansa</text><text class="largebold" fill="black" x="25" y="205">0314</text><text class="normal" fill="black" x="25" y="230">B744/H</text><text class="normal" fill="black" x="25" y="255">PBN/A1B1D1O1S2 NAV/RNVD1E2A1 DAT/VM DOF/211209 REG/DABVY EET/ESAA</text><text class="normal" fill="black" x="180" y="167">1115</text><text class="normal" fill="black" x="340" y="167">F380</text><text class="normal" fill="black" x="410" y="167" /><text class="largebold" fill="black" x="505" y="175" /><text class="largebold" fill="black" x="560" y="175">EFHK EDDF</text><text class="normal" fill="black" x="690" y="175">0218</text><text class="normal" fill="black" x="750" y="167">I</text><text class="normal" fill="black" x="560" y="200">NUNTO Y369 REKDO DCT GOR</text><rect fill="none" height="29mm" stroke="rgb(10%,10%,16%)" width="20cm" x="10" y="290" /><line fill="none" stroke="rgb(10%,10%,16%)" x1="160" x2="160" y1="290" y2="400" /><rect fill="black" height="20" stroke="rgb(10%,10%,16%)" width="10" x="10" y="290" /><line fill="none" stroke="rgb(10%,10%,16%)" x1="240" x2="240" y1="290" y2="400" /><line fill="none" stroke="rgb(10%,10%,16%)" x1="320" x2="320" y1="290" y2="400" /><line fill="none" stroke="rgb(10%,10%,16%)" x1="400" x2="400" y1="290" y2="400" /><line fill="none" stroke="rgb(10%,10%,16%)" x1="480" x2="480" y1="290" y2="400" /><line fill="none" stroke="rgb(10%,10%,16%)" x1="560" x2="560" y1="290" y2="400" /><line fill="none" stroke="rgb(10%,10%,16%)" x1="560" x2="765" y1="345" y2="345" /><line fill="none" stroke="rgb(10%,10%,16%)" x1="628" x2="628" y1="345" y2="400" /><line fill="none" stroke="rgb(10%,10%,16%)" x1="696" x2="696" y1="345" y2="400" /><text class="largebold" fill="black" x="25" y="315">EXS3TW</text><text class="normal" fill="black" x="85" y="330">Channex</text><text class="largebold" fill="black" x="25" y="345">3421</text><text class="normal" fill="black" x="25" y="370">A321/M</text><text class="normal" fill="black" x="25" y="395">PBN/A1B1C1D1O1S1 NAV/RNVD1E2A1 SUR/TCAS DOF/211209 REG/GHLYF EET/</text><text class="normal" fill="black" x="180" y="307">1230</text><text class="normal" fill="black" x="340" y="307">F360</text><text class="normal" fill="black" x="410" y="307" /><text class="largebold" fill="black" x="505" y="315" /><text class="largebold" fill="black" x="560" y="315">EFHK EGSS</text><text class="normal" fill="black" x="690" y="315">0230</text><text class="normal" fill="black" x="750" y="307">I</text><text class="normal" fill="black" x="560" y="340">VALOX Y117 ROSAX DCT OSM</text><rect fill="none" height="29mm" stroke="rgb(10%,10%,16%)" width="20cm" x="10" y="430" /><line fill="none" stroke="rgb(10%,10%,16%)" x1="160" x2="160" y1="430" y2="540" /><rect fill="black" height="20" stroke="rgb(10%,10%,16%)" width="10" x="10" y="430" /><line fill="none" stroke="rgb(10%,10%,16%)" x1="240" x2="240" y1="430" y2="540" /><line fill="none" stroke="rgb(10%,10%,16%)" x1="320" x2="320" y1="430" y2="540" /><line fill="none" stroke="rgb(10%,10%,16%)" x1="400" x2="400" y1="430" y2="540" /><line fill="none" stroke="rgb(10%,10%,16%)" x1="480" x2="480" y1="430" y2="540" /><line fill="none" stroke="rgb(10%,10%,16%)" x1="560" x2="560" y1="430" y2="540" /><line fill="none" stroke="rgb(10%,10%,16%)" x1="560" x2="765" y1="485" y2="485" /><line fill="none" stroke="rgb(10%,10%,16%)" x1="628" x2="628" y1="485" y2="540" /><line fill="none" stroke="rgb(10%,10%,16%)" x1="696" x2="696" y1="485" y2="540" /><text class="largebold" fill="black" x="25" y="455">FIN7GR</text><text class="normal" fill="black" x="85" y="470">Finnair</text><text class="largebold" fill="black" x="25" y="485">2000</text><text class="normal" fill="black" x="25" y="510">A319/M</text><text class="normal" fill="black" x="25" y="535">DOF/211209 REG/OHLVL SEL/QSBE OPR/FIN PER/C /V/</text><text class="normal" fill="black" x="180" y="447">1320</text><text class="normal" fill="black" x="340" y="447">F360</text><text class="normal" fill="black" x="410" y="447" /><text class="largebold" fill="black" x="505" y="455" /><text class="largebold" fill="black" x="560" y="455">EFHK EGLL</text><text class="normal" fill="black" x="690" y="455">0238</text><text class="normal" fill="black" x="750" y="447">I</text><text class="normal" fill="black" x="560" y="480">NUNTO Y369 REKDO DEMIR N</text></svg>