<?xml version="1.0" encoding="utf-8" ?>
<?xml-stylesheet href="styles.css" type="text/css" title="pls" alternate="no" media="screen"?>
<svg baseProfile="full" height="100%" version="1.1" width="100%" xmlns="http://www.w3.org/2000/svg" xmlns:ev="http://www.w3.org/2001/xml-events" xmlns:xlink="http://www.w3.org/1999/xlink"><defs /><rect fill="none" height="29mm" stroke="rgb(10%,10%,16%)" width="20cm" x="10" y="10" /><line fill="none" stroke="rgb(10%,10%,16%)" x1="160" x2="160" y1="10" y2="120" /><rect fill="black" height="20" stroke="rgb(10%,10%,16%)" width="10" x="10" y="10" /><line fill="none" stroke="rgb(10%,10%,16%)" x1="240" x2="240" y1="10" y2="120" /><line fill="none" stroke="rgb(10%,10%,16%)" x1="320" x2="320" y1="10" y2="120" /><line fill="none" stroke="rgb(10%,10%,16%)" x1="400" x2="400" y1="10" y2="120" /><line fill="none" stroke="rgb(10%,10%,16%)" x1="480" x2="480" y1="10" y2="120" /><line fill="none" stroke="rgb(10%,10%,16%)" x1="560" x2="560" y1="10" y2="120" /><line fill="none" stroke="rgb(10%,10%,16%)" x1="560" x2="765" y1="65" y2="65" /><line fill="none" stroke="rgb(10%,10%,16%)" x1="628" x2="628" y1="65" y2="120" /><line fill="none" stroke="rgb(10%,10%,16%)" x1="696" x2="696" y1="65" y2="120" /><text class="largebold" fill="black" x="25" y="35">CSN33LR</text><text class="normal" fill="black" x="85" y="50">China Southern</text><text class="largebold" fill="black" x="25" y="65">1713</text><text class="normal" fill="black" x="25" y="90">B772/H</text><text class="normal" fill="black" x="25" y="115">PBN/A1B1D1S2T1 DOF/260109 REG/N755SB EET/UHHH0059 UEEE0254 UNKL04</text><text class="normal" fill="black" x="180" y="27">1325</text><text class="normal" fill="black" x="340" y="27">F320</text><text class="normal" fill="black" x="410" y="27" /><text class="largebold" fill="black" x="505" y="35" /><text class="largebold" fill="black" x="560" y="35">RJTT EFHK</text><text class="normal" fill="black" x="690" y="35">0938</text><text class="normal" fill="black" x="750" y="27">I</text><text class="normal" fill="black" x="560" y="60">SYE V15 GTC R211 KADBO B</text><rect fill="none" height="29mm" stroke="rgb(10%,10%,16%)" width="20cm" x="10" y="150" /><line fill="none" stroke="rgb(10%,10%,16%)" x1="160" x2="160" y1="150" y2="260" /><rect fill="black" height="20" stroke="rgb(10%,10%,16%)" width="10" x="10" y="150" /><line fill="none" stroke="rgb(10%,10%,16%)" x1="240" x2="240" y1="150" y2="260" /><line fill="none" stroke="rgb(10%,10%,16%)" x1="320" x2="320" y1="150" y2="260" /><line fill="none" stroke="rgb(10%,10%,16%)" x1="400" x2="400" y1="150" y2="260" /><line fill="none" stroke="rgb(10%,10%,16%)" x1="480" x2="480" y1="150" y2="260" /><line fill="none" stroke="rgb(10%,10%,16%)" x1="560" x2="560" y1="150" y2="260" /><line fill="none" stroke="rgb(10%,10%,16%)" x1="560" x2="765" y1="205" y2="205" /><line fill="none" stroke="rgb(10%,10%,16%)" x1="628" x2="628" y1="205" y2="260" /><line fill="none" stroke="rgb(10%,10%,16%)" x1="696" x2="696" y1="205" y2="260" /><text class="largebold" fill="black" x="25" y="175">WZZ674</text><text class="normal" fill="black" x="85" y="190">Wizzair</text><text class="largebold" fill="black" x="25" y="205">4310</text><text class="normal" fill="black" x="25" y="230">A21N/M</text><text class="normal" fill="black" x="25" y="255">PBN/A1B1C1D1L1O1S2 DOF/260109 REG/HALVA EET/EYVL0042 EVRR0059 EET</text><text class="normal" fill="black" x="180" y="167">1605</text><text class="normal" fill="black" x="340" y="167">F370</text><text class="normal" fill="black" x="410" y="167" /><text class="largebold" fill="black" x="505" y="175" /><text class="largebold" fill="black" x="560" y="175">EPKK EFHK</text><text class="normal" fill="black" x="690" y="175">0145</text><text class="normal" fill="black" x="750" y="167">I</text><text class="normal" fill="black" x="560" y="200">POBOK DCT LOGDA DCT SUWG</text><rect fill="none" height="29mm" stroke="rgb(10%,10%,16%)" width="20cm" x="10" y="290" /><line fill="none" stroke="rgb(10%,10%,16%)" x1="160" x2="160" y1="290" y2="400" /><rect fill="black" height="20" stroke="rgb(10%,10%,16%)" width="10" x="10" y="290" /><line fill="none" stroke="rgb(10%,10%,16%)" x1="240" x2="240" y1="290" y2="400" /><line fill="none" stroke="rgb(10%,10%,16%)" x1="320" x2="320" y1="290" y2="400" /><line fill="none" stroke="rgb(10%,10%,16%)" x1="400" x2="400" y1="290" y2="400" /><line fill="none" stroke="rgb(10%,10%,16%)" x1="480" x2="480" y1="290" y2="400" /><line fill="none" stroke="rgb(10%,10%,16%)" x1="560" x2="560" y1="290" y2="400" /><line fill="none" stroke="rgb(10%,10%,16%)" x1="560" x2="765" y1="345" y2="345" /><line fill="none" stroke="rgb(10%,10%,16%)" x1="628" x2="628" y1="345" y2="400" /><line fill="none" stroke="rgb(10%,10%,16%)" x1="696" x2="696" y1="345" y2="400" /><text class="largebold" fill="black" x="25" y="315">FIN2ER</text><text class="normal" fill="black" x="85" y="330">Finnair</text><text class="largebold" fill="black" x="25" y="345">1255</text><text class="normal" fill="black" x="25" y="370">A320/M</text><text class="normal" fill="black" x="25" y="395">PBN/A1B1C1D1O1S1 DOF/260109 REG/GFENX EET/LIBB0014 LDZO0021 LQSB0</text><text class="normal" fill="black" x="180" y="307">1700</text><text class="normal" fill="black" x="340" y="307">F370</text><text class="normal" fill="black" x="410" y="307" /><text class="largebold" fill="black" x="505" y="315" /><text class="largebold" fill="black" x="560" y="315">LIRF EFHK</text><text class="normal" fill="black" x="690" y="315">0256</text><text class="normal" fill="black" x="750" y="307">I</text><text class="normal" fill="black" x="560" y="340">XIBRI5AXOKUNO5R/25 OKUNO</text><rect fill="none" height="29mm" stroke="rgb(10%,10%,16%)" width="20cm" x="10" y="430" /><line fill="none" stroke="rgb(10%,10%,16%)" x1="160" x2="160" y1="430" y2="540" /><rect fill="black" height="20" stroke="rgb(10%,10%,16%)" width="10" x="10" y="430" /><line fill="none" stroke="rgb(10%,10%,16%)" x1="240" x2="240" y1="430" y2="540" /><line fill="none" stroke="rgb(10%,10%,16%)" x1="320" x2="320" y1="430" y2="540" /><line fill="none" stroke="rgb(10%,10%,16%)" x1="400" x2="400" y1="430" y2="540" /><line fill="none" stroke="rgb(10%,10%,16%)" x1="480" x2="480" y1="430" y2="540" /><line fill="none" stroke="rgb(10%,10%,16%)" x1="560" x2="560" y1="430" y2="540" /><line fill="none" stroke="rgb(10%,10%,16%)" x1="560" x2="765" y1="485" y2="485" /><line fill="none" stroke="rgb(10%,10%,16%)" x1="628" x2="628" y1="485" y2="540" /><line fill="none" stroke="rgb(10%,10%,16%)" x1="696" x2="696" y1="485" y2="540" /><text class="largebold" fill="black" x="25" y="455">FDX311</text><text class="normal" fill="black" x="85" y="470">Fedex</text><text class="largebold" fill="black" x="25" y="485">2000</text><text class="normal" fill="black" x="25" y="510">MD11/H</text><text class="normal" fill="black" x="25" y="535">PBN/A1B1C1D1L1O1S2 DOF/260109 REG/N116SB EET/ULLL0025 EFIN0101 OP</text><text class="normal" fill="black" x="180" y="447">1705</text><text class="normal" fill="black" x="340" y="447">F340</text><text class="normal" fill="black" x="410" y="447" /><text class="largebold" fill="black" x="505" y="455" /><text class="largebold" fill="black" x="560" y="455">UUEE EFHK</text><text class="normal" fill="black" x="690" y="455">0118</text><text class="normal" fill="black" x="750" y="447">I</text><text class="normal" fill="black" x="560" y="480">TOKNU3E TOKNU L4 NUDKO T</text><rect fill="none" height="29mm" stroke="rgb(10%,10%,16%)" width="20cm" x="10" y="570" /><line fill="none" stroke="rgb(10%,10%,16%)" x1="160" x2="160" y1="570" y2="680" /><rect fill="black" height="20" stroke="rgb(10%,10%,16%)" width="10" x="10" y="570" /><line fill="none" stroke="rgb(10%,10%,16%)" x1="240" x2="240" y1="570" y2="680" /><line fill="none" stroke="rgb(10%,10%,16%)" x1="320" x2="320" y1="570" y2="680" /><line fill="none" stroke="rgb(10%,10%,16%)" x1="400" x2="400" y1="570" y2="680" /><line fill="none" stroke="rgb(10%,10%,16%)" x1="480" x2="480" y1="570" y2="680" /><line fill="none" stroke="rgb(10%,10%,16%)" x1="560" x2="560" y1="570" y2="680" /><line fill="none" stroke="rgb(10%,10%,16%)" x1="560" x2="765" y1="625" y2="625" /><line fill="none" stroke="rgb(10%,10%,16%)" x1="628" x2="628" y1="625" y2="680" /><line fill="none" stroke="rgb(10%,10%,16%)" x1="696" x2="696" y1="625" y2="680" /><text class="largebold" fill="black" x="25" y="595">FIN4RW</text><text class="normal" fill="black" x="85" y="610">Finnair</text><text class="largebold" fill="black" x="25" y="625">6546</text><text class="normal" fill="black" x="25" y="650">A320/M</text><text class="normal" fill="black" x="25" y="675">PBN/A1B1C1D1O1S1 DOF/260109 REG/OHLXA EET/EFIN0008 OPR/AY PER/C R</text><text class="normal" fill="black" x="180" y="587">1700</text><text class="normal" fill="black" x="340" y="587">F330</text><text class="normal" fill="black" x="410" y="587" /><text class="largebold" fill="black" x="505" y="595" /><text class="largebold" fill="black" x="560" y="595">ESSA EFHK</text><text class="normal" fill="black" x="690" y="595">0041</text><text class="normal" fill="black" x="750" y="587">I</text><text class="normal" fill="black" x="560" y="620">TOVRI N851 RIKUM DCT RIR</text><rect fill="none" height="29mm" stroke="rgb(10%,10%,16%)" width="20cm" x="10" y="710" /><line fill="none" stroke="rgb(10%,10%,16%)" x1="160" x2="160" y1="710" y2="820" /><rect fill="black" height="20" stroke="rgb(10%,10%,16%)" width="10" x="10" y="710" /><line fill="none" stroke="rgb(10%,10%,16%)" x1="240" x2="240" y1="710" y2="820" /><line fill="none" stroke="rgb(10%,10%,16%)" x1="320" x2="320" y1="710" y2="820" /><line fill="none" stroke="rgb(10%,10%,16%)" x1="400" x2="400" y1="710" y2="820" /><line fill="none" stroke="rgb(10%,10%,16%)" x1="480" x2="480" y1="710" y2="820" /><line fill="none" stroke="rgb(10%,10%,16%)" x1="560" x2="560" y1="710" y2="820" /><line fill="none" stroke="rgb(10%,10%,16%)" x1="560" x2="765" y1="765" y2="765" /><line fill="none" stroke="rgb(10%,10%,16%)" x1="628" x2="628" y1="765" y2="820" /><line fill="none" stroke="rgb(10%,10%,16%)" x1="696" x2="696" y1="765" y2="820" /><text class="largebold" fill="black" x="25" y="735">OHTAH</text><text class="normal" fill="black" x="85" y="750" /><text class="largebold" fill="black" x="25" y="765">5473</text><text class="normal" fill="black" x="25" y="790">PA24/L</text><text class="normal" fill="black" x="25" y="815">DOF/260109 CODE/123456 PER/A RMK/EFRY 1LA EFHK 2TGL 1FS /V/</text><text class="normal" fill="black" x="180" y="727">1715</text><text class="normal" fill="black" x="340" y="727">A045</text><text class="normal" fill="black" x="410" y="727" /><text class="largebold" fill="black" x="505" y="735" /><text class="largebold" fill="black" x="560" y="735">EFHK EFHK</text><text class="normal" fill="black" x="690" y="735">0045</text><text class="normal" fill="black" x="750" y="727">V</text><text class="normal" fill="black" x="560" y="760">LINTU DCT EFRY DCT TURFI</text><rect fill="none" height="29mm" stroke="rgb(10%,10%,16%)" width="20cm" x="10" y="850" /><line fill="none" stroke="rgb(10%,10%,16%)" x1="160" x2="160" y1="850" y2="960" /><rect fill="black" height="20" stroke="rgb(10%,10%,16%)" width="10" x="10" y="850" /><line fill="none" stroke="rgb(10%,10%,16%)" x1="240" x2="240" y1="850" y2="960" /><line fill="none" stroke="rgb(10%,10%,16%)" x1="320" x2="320" y1="850" y2="960" /><line fill="none" stroke="rgb(10%,10%,16%)" x1="400" x2="400" y1="850" y2="960" /><line fill="none" stroke="rgb(10%,10%,16%)" x1="480" x2="480" y1="850" y2="960" /><line fill="none" stroke="rgb(10%,10%,16%)" x1="560" x2="560" y1="850" y2="960" /><line fill="none" stroke="rgb(10%,10%,16%)" x1="560" x2="765" y1="905" y2="905" /><line fill="none" stroke="rgb(10%,10%,16%)" x1="628" x2="628" y1="905" y2="960" /><line fill="none" stroke="rgb(10%,10%,16%)" x1="696" x2="696" y1="905" y2="960" /><text class="largebold" fill="black" x="25" y="875">BTI24X</text><text class="normal" fill="black" x="85" y="890">Airbaltic</text><text class="largebold" fill="black" x="25" y="905">4314</text><text class="normal" fill="black" x="25" y="930">B736/M</text><text class="normal" fill="black" x="25" y="955">PBN/A1B1C1D1S1S2 DOF/260109 REG/YLBBM EET/EETT0011 EFIN0032 OPR/B</text><text class="normal" fill="black" x="180" y="867">1735</text><text class="normal" fill="black" x="340" y="867">F370</text><text class="normal" fill="black" x="410" y="867" /><text class="largebold" fill="black" x="505" y="875" /><text class="largebold" fill="black" x="560" y="875">EVRA EFHK</text><text class="normal" fill="black" x="690" y="875">0045</text><text class="normal" fill="black" x="750" y="867">I</text><text class="normal" fill="black" x="560" y="900">SOKVA DCT KEMET Q11 INTO</text><rect fill="none" height="29mm" stroke="rgb(10%,10%,16%)" width="20cm" x="10" y="990" /><line fill="none" stroke="rgb(10%,10%,16%)" x1="160" x2="160" y1="990" y2="1100" /><rect fill="black" height="20" stroke="rgb(10%,10%,16%)" width="10" x="10" y="990" /><line fill="none" stroke="rgb(10%,10%,16%)" x1="240" x2="240" y1="990" y2="1100" /><line fill="none" stroke="rgb(10%,10%,16%)" x1="320" x2="320" y1="990" y2="1100" /><line fill="none" stroke="rgb(10%,10%,16%)" x1="400" x2="400" y1="990" y2="1100" /><line fill="none" stroke="rgb(10%,10%,16%)" x1="480" x2="480" y1="990" y2="1100" /><line fill="none" stroke="rgb(10%,10%,16%)" x1="560" x2="560" y1="990" y2="1100" /><line fill="none" stroke="rgb(10%,10%,16%)" x1="560" x2="765" y1="1045" y2="1045" /><line fill="none" stroke="rgb(10%,10%,16%)" x1="628" x2="628" y1="1045" y2="1100" /><line fill="none" stroke="rgb(10%,10%,16%)" x1="696" x2="696" y1="1045" y2="1100" /><text class="largebold" fill="black" x="25" y="1015">OHNNB</text><text class="normal" fill="black" x="85" y="1030" /><text class="largebold" fill="black" x="25" y="1045">5547</text><text class="normal" fill="black" x="25" y="1070">C172/L</text><text class="normal" fill="black" x="25" y="1095">DOF/260109 REG/OHNNB EET/EETT0026 EFIN0103 PER/A RMK/EFHK 5X TGL </text><text class="normal" fill="black" x="180" y="1007">1800</text><text class="normal" fill="black" x="340" y="1007">A010</text><text class="normal" fill="black" x="410" y="1007" /><text class="largebold" fill="black" x="505" y="1015" /><text class="largebold" fill="black" x="560" y="1015">EFHK EFHK</text><text class="normal" fill="black" x="690" y="1015">0127</text><text class="normal" fill="black" x="750" y="1007">V</text><text class="normal" fill="black" x="560" y="1040"> TC </text><rect fill="none" height="29mm" stroke="rgb(10%,10%,16%)" width="20cm" x="10" y="1130" /><line fill="none" stroke="rgb(10%,10%,16%)" x1="160" x2="160" y1="1130" y2="1240" /><rect fill="black" height="20" stroke="rgb(10%,10%,16%)" width="10" x="10" y="1130" /><line fill="none" stroke="rgb(10%,10%,16%)" x1="240" x2="240" y1="1130" y2="1240" /><line fill="none" stroke="rgb(10%,10%,16%)" x1="320" x2="320" y1="1130" y2="1240" /><line fill="none" stroke="rgb(10%,10%,16%)" x1="400" x2="400" y1="1130" y2="1240" /><line fill="none" stroke="rgb(10%,10%,16%)" x1="480" x2="480" y1="1130" y2="1240" /><line fill="none" stroke="rgb(10%,10%,16%)" x1="560" x2="560" y1="1130" y2="1240" /><line fill="none" stroke="rgb(10%,10%,16%)" x1="560" x2="765" y1="1185" y2="1185" /><line fill="none" stroke="rgb(10%,10%,16%)" x1="628" x2="628" y1="1185" y2="1240" /><line fill="none" stroke="rgb(10%,10%,16%)" x1="696" x2="696" y1="1185" y2="1240" /><text class="largebold" fill="black" x="25" y="1155">FIN4XD</text><text class="normal" fill="black" x="85" y="1170">Finnair</text><text class="largebold" fill="black" x="25" y="1185">4633</text><text class="normal" fill="black" x="25" y="1210">A321/M</text><text class="normal" fill="black" x="25" y="1235">PBN/A1B1C1D1L1O1S2 NAV/RNP2 SUR/260B DOF/260109 REG/OHLZE EET/EFI</text><text class="normal" fill="black" x="180" y="1147">1804</text><text class="normal" fill="black" x="340" y="1147">F330</text><text class="normal" fill="black" x="410" y="1147" /><text class="largebold" fill="black" x="505" y="1155" /><text class="largebold" fill="black" x="560" y="1155">ESSA EFHK</text><text class="normal" fill="black" x="690" y="1155">0041</text><text class="normal" fill="black" x="750" y="1147">I</text><text class="normal" fill="black" x="560" y="1180">TOVRI N851 RIKUM DCT RIR</text><rect fill="none" height="29mm" stroke="rgb(10%,10%,16%)" width="20cm" x="10" y="1270" /><line fill="none" stroke="rgb(10%,10%,16%)" x1="160" x2="160" y1="1270" y2="1380" /><rect fill="black" height="20" stroke="rgb(10%,10%,16%)" width="10" x="10" y="1270" /><line fill="none" stroke="rgb(10%,10%,16%)" x1="240" x2="240" y1="1270" y2="1380" /><line fill="none" stroke="rgb(10%,10%,16%)" x1="320" x2="320" y1="1270" y2="1380" /><line fill="none" stroke="rgb(10%,10%,16%)" x1="400" x2="400" y1="1270" y2="1380" /><line fill="none" stroke="rgb(10%,10%,16%)" x1="480" x2="480" y1="1270" y2="1380" /><line fill="none" stroke="rgb(10%,10%,16%)" x1="560" x2="560" y1="1270" y2="1380" /><line fill="none" stroke="rgb(10%,10%,16%)" x1="560" x2="765" y1="1325" y2="1325" /><line fill="none" stroke="rgb(10%,10%,16%)" x1="628" x2="628" y1="1325" y2="1380" /><line fill="none" stroke="rgb(10%,10%,16%)" x1="696" x2="696" y1="1325" y2="1380" /><text class="largebold" fill="black" x="25" y="1295">FIN132</text><text class="normal" fill="black" x="85" y="1310">Finnair</text><text class="largebold" fill="black" x="25" y="1325">2000</text><text class="normal" fill="black" x="25" y="1350">A359/H</text><text class="normal" fill="black" x="25" y="1375">PBN/A1B1C1D1L1O1S2 NAV/SBAS RNP2 DAT/1FANSE2PDC SUR/260B RSP180 C</text><text class="normal" fill="black" x="180" y="1287">1810</text><text class="normal" fill="black" x="340" y="1287">F360</text><text class="normal" fill="black" x="410" y="1287" /><text class="largebold" fill="black" x="505" y="1295" /><text class="largebold" fill="black" x="560" y="1295">WSSS EFHK</text><text class="normal" fill="black" x="690" y="1295">1321</text><text class="normal" fill="black" x="750" y="1287">I</text><text class="normal" fill="black" x="560" y="1320">AROSO3A AROSO Y513 KALIL</text><rect fill="none" height="29mm" stroke="rgb(10%,10%,16%)" width="20cm" x="10" y="1410" /><line fill="none" stroke="rgb(10%,10%,16%)" x1="160" x2="160" y1="1410" y2="1520" /><rect fill="black" height="20" stroke="rgb(10%,10%,16%)" width="10" x="10" y="1410" /><line fill="none" stroke="rgb(10%,10%,16%)" x1="240" x2="240" y1="1410" y2="1520" /><line fill="none" stroke="rgb(10%,10%,16%)" x1="320" x2="320" y1="1410" y2="1520" /><line fill="none" stroke="rgb(10%,10%,16%)" x1="400" x2="400" y1="1410" y2="1520" /><line fill="none" stroke="rgb(10%,10%,16%)" x1="480" x2="480" y1="1410" y2="1520" /><line fill="none" stroke="rgb(10%,10%,16%)" x1="560" x2="560" y1="1410" y2="1520" /><line fill="none" stroke="rgb(10%,10%,16%)" x1="560" x2="765" y1="1465" y2="1465" /><line fill="none" stroke="rgb(10%,10%,16%)" x1="628" x2="628" y1="1465" y2="1520" /><line fill="none" stroke="rgb(10%,10%,16%)" x1="696" x2="696" y1="1465" y2="1520" /><text class="largebold" fill="black" x="25" y="1435">RZO178</text><text class="normal" fill="black" x="85" y="1450">Air Azores</text><text class="largebold" fill="black" x="25" y="1465">1000</text><text class="normal" fill="black" x="25" y="1490">A320/M</text><text class="normal" fill="black" x="25" y="1515">PBN/A1B1C1D1O1S1 DOF/260109 REG/CSTKQ EET/ESAA0009 EFIN0035 SEL/D</text><text class="normal" fill="black" x="180" y="1427">1820</text><text class="normal" fill="black" x="340" y="1427">F350</text><text class="normal" fill="black" x="410" y="1427" /><text class="largebold" fill="black" x="505" y="1435" /><text class="largebold" fill="black" x="560" y="1435">ENGM EFHK</text><text class="normal" fill="black" x="690" y="1435">0108</text><text class="normal" fill="black" x="750" y="1427">I</text><text class="normal" fill="black" x="560" y="1460">MASEV DCT OTKIL Y368 LAK</text><rect fill="none" height="29mm" stroke="rgb(10%,10%,16%)" width="20cm" x="10" y="1550" /><line fill="none" stroke="rgb(10%,10%,16%)" x1="160" x2="160" y1="1550" y2="1660" /><rect fill="black" height="20" stroke="rgb(10%,10%,16%)" width="10" x="10" y="1550" /><line fill="none" stroke="rgb(10%,10%,16%)" x1="240" x2="240" y1="1550" y2="1660" /><line fill="none" stroke="rgb(10%,10%,16%)" x1="320" x2="320" y1="1550" y2="1660" /><line fill="none" stroke="rgb(10%,10%,16%)" x1="400" x2="400" y1="1550" y2="1660" /><line fill="none" stroke="rgb(10%,10%,16%)" x1="480" x2="480" y1="1550" y2="1660" /><line fill="none" stroke="rgb(10%,10%,16%)" x1="560" x2="560" y1="1550" y2="1660" /><line fill="none" stroke="rgb(10%,10%,16%)" x1="560" x2="765" y1="1605" y2="1605" /><line fill="none" stroke="rgb(10%,10%,16%)" x1="628" x2="628" y1="1605" y2="1660" /><line fill="none" stroke="rgb(10%,10%,16%)" x1="696" x2="696" y1="1605" y2="1660" /><text class="largebold" fill="black" x="25" y="1575">LOT217</text><text class="normal" fill="black" x="85" y="1590">Lot</text><text class="largebold" fill="black" x="25" y="1605">1000</text><text class="normal" fill="black" x="25" y="1630">B738/M</text><text class="normal" fill="black" x="25" y="1655">PBN/A1B1C1D1S1S2 DOF/260109 REG/SP-LWA EET/ESAA0018 EVRR0035 EETT</text><text class="normal" fill="black" x="180" y="1567">1820</text><text class="normal" fill="black" x="340" y="1567">F340</text><text class="normal" fill="black" x="410" y="1567" /><text class="largebold" fill="black" x="505" y="1575" /><text class="largebold" fill="black" x="560" y="1575">EPGD EFHK</text><text class="normal" fill="black" x="690" y="1575">0124</text><text class="normal" fill="black" x="750" y="1567">I</text><text class="normal" fill="black" x="560" y="1600">VAPOS2B VAPOS N133 PENOR</text></svg>